<svg width="19" height="19" viewBox="0 0 19 19" fill="none" xmlns="http://www.w3.org/2000/svg">
<path d="M2.38419e-07 2.00024C2.38419e-07 0.895671 0.895431 0.000244141 2 0.000244141H17C18.1046 0.000244141 19 0.895675 19 2.00024V16.9996C19 18.1042 18.1046 18.9996 17 18.9996H2C0.895431 18.9996 2.38419e-07 18.1042 2.38419e-07 16.9996V2.00024Z" fill="#FFA824"/>
<path d="M6.93112 9.67257H8.61524L7.7732 6.33752L6.93112 9.67257ZM3.43745 1.48801C2.33288 1.48801 1.43745 2.38344 1.43745 3.48801V15.5213C1.43745 16.6259 2.33288 17.5213 3.43745 17.5213H15.5866C16.6912 17.5213 17.5866 16.6259 17.5866 15.5213V3.48801C17.5866 2.38344 16.6912 1.48801 15.5866 1.48801H3.43745ZM9.53951 13.3293L8.92333 11.1618H6.64352L6.02735 13.3293H4.4664L6.66406 5.66635V4.82735H8.75904L11.2647 13.3293H9.53951ZM13.6884 13.3293H12.0043V6.86196H13.6884V13.3293ZM12.8565 6.08588C12.3744 6.08588 11.9836 5.69145 11.9836 5.20494C11.9836 4.7184 12.3744 4.32396 12.8565 4.32396C13.3387 4.32396 13.7295 4.7184 13.7295 5.20494C13.7295 5.69145 13.3387 6.08588 12.8565 6.08588Z" fill="url(#paint0_linear_1_10148)"/>
<defs>
<linearGradient id="paint0_linear_1_10148" x1="9.51203" y1="1.46108" x2="9.51203" y2="17.4404" gradientUnits="userSpaceOnUse">
<stop stop-color="#251200"/>
<stop offset="1"/>
</linearGradient>
</defs>
</svg>
