<svg width="20" height="20" viewBox="0 0 20 20" fill="none" xmlns="http://www.w3.org/2000/svg">
<g clip-path="url(#clip0_1_10133)">
<path d="M9.97398 0.00178693C9.97398 0.00178693 15.869 -0.262603 18.9933 5.64057H9.47271C9.47271 5.64057 7.67462 5.58164 6.14187 7.75528C5.69983 8.66581 5.22833 9.60564 5.75879 11.4556C4.99249 10.1636 1.69116 4.43653 1.69116 4.43653C1.69116 4.43653 4.01998 0.236643 9.97398 0.00178693Z" fill="#C6352E"/>
<path d="M18.6865 14.9898C18.6865 14.9898 15.968 20.2082 9.2749 19.9517C10.1006 18.5277 14.0363 11.7369 14.0363 11.7369C14.0363 11.7369 14.9865 10.215 13.8646 7.80556C13.2942 6.96869 12.7133 6.09176 10.8399 5.6242C12.3466 5.60929 18.9744 5.62516 18.9744 5.62516C18.9744 5.62516 21.4599 9.73484 18.6865 14.9898Z" fill="#F4D911"/>
<path d="M1.30339 15.0294C1.30339 15.0294 -1.87286 10.0738 1.69707 4.42693C2.52201 5.85151 6.45566 12.6434 6.45566 12.6434C6.45566 12.6434 7.30309 14.2243 9.95847 14.461C10.9707 14.3875 12.0236 14.3247 13.3667 12.9421C12.6261 14.2494 9.29802 19.9609 9.29802 19.9609C9.29802 19.9609 4.48349 20.0503 1.30339 15.0294Z" fill="#81B354"/>
<path d="M9.2749 20L10.6141 14.4318C10.6141 14.4318 12.0866 14.3173 13.3204 12.968C12.5545 14.3106 9.2749 20 9.2749 20Z" fill="#7BAA50"/>
<path d="M5.48881 10.0623C5.48881 7.60769 7.48567 5.6178 9.94939 5.6178C12.4129 5.6178 14.4099 7.60765 14.4099 10.0623C14.4099 12.5171 12.413 14.507 9.94939 14.507C7.48567 14.507 5.48881 12.5171 5.48881 10.0623Z" fill="white"/>
<path d="M6.23534 10.0623C6.23534 8.01861 7.89807 6.36182 9.94939 6.36182C12.0003 6.36182 13.6632 8.01861 13.6632 10.0623C13.6632 12.1061 12.0003 13.763 9.94939 13.763C7.89807 13.763 6.23534 12.106 6.23534 10.0623Z" fill="url(#paint0_linear_1_10133)"/>
<path d="M18.9745 5.62516L13.46 7.23614C13.46 7.23614 12.6285 6.02021 10.8399 5.6242C12.3897 5.61894 18.9745 5.62516 18.9745 5.62516Z" fill="#E7CE12"/>
<path d="M5.65156 11.2558C4.87659 9.91849 1.69134 4.43639 1.69134 4.43639L5.77632 8.46281C5.77632 8.46281 5.35653 9.32323 5.5157 10.5521L5.65156 11.2558Z" fill="#BC332C"/>
</g>
<defs>
<linearGradient id="paint0_linear_1_10133" x1="9.94925" y1="6.41416" x2="9.94925" y2="13.5416" gradientUnits="userSpaceOnUse">
<stop stop-color="#A2C0E6"/>
<stop offset="1" stop-color="#406CB1"/>
</linearGradient>
<clipPath id="clip0_1_10133">
<rect width="20" height="20" fill="white"/>
</clipPath>
</defs>
</svg>
