<svg width="21" height="21" viewBox="0 0 21 21" fill="none" xmlns="http://www.w3.org/2000/svg">
<path d="M17.5651 14.0647C17.3196 14.1931 17.0664 14.3062 16.807 14.4035C15.9812 14.7124 15.1064 14.8699 14.2247 14.8681C10.821 14.8681 7.85613 12.5268 7.85613 9.52236C7.86048 9.11939 7.97231 8.72488 8.18006 8.37956C8.3878 8.03424 8.68395 7.75062 9.03792 7.55798C5.95936 7.68746 5.16814 10.8955 5.16814 12.775C5.16814 18.0891 10.0658 18.6278 11.121 18.6278C11.6899 18.6278 12.5481 18.4624 13.0631 18.2999L13.1573 18.2682C15.1391 17.5831 16.8286 16.2436 17.9478 14.4704C17.982 14.4164 17.9973 14.3525 17.9913 14.2888C17.9852 14.2251 17.958 14.1653 17.9141 14.1188C17.8702 14.0722 17.8121 14.0416 17.7489 14.0319C17.6857 14.0221 17.621 14.0336 17.5651 14.0647Z" fill="url(#paint0_linear_1_10155)"/>
<path opacity="0.35" d="M17.5651 14.0647C17.3196 14.1931 17.0664 14.3062 16.807 14.4035C15.9812 14.7124 15.1064 14.8699 14.2247 14.8681C10.821 14.8681 7.85613 12.5268 7.85613 9.52236C7.86048 9.11939 7.97231 8.72488 8.18006 8.37956C8.3878 8.03424 8.68395 7.75062 9.03792 7.55798C5.95936 7.68746 5.16814 10.8955 5.16814 12.775C5.16814 18.0891 10.0658 18.6278 11.121 18.6278C11.6899 18.6278 12.5481 18.4624 13.0631 18.2999L13.1573 18.2682C15.1391 17.5831 16.8286 16.2436 17.9478 14.4704C17.982 14.4164 17.9973 14.3525 17.9913 14.2888C17.9852 14.2251 17.958 14.1653 17.9141 14.1188C17.8702 14.0722 17.8121 14.0416 17.7489 14.0319C17.6857 14.0221 17.621 14.0336 17.5651 14.0647Z" fill="url(#paint1_radial_1_10155)"/>
<path d="M8.54952 17.7244C7.90796 17.3262 7.35196 16.8045 6.91386 16.1895C6.41452 15.5053 6.0709 14.7202 5.90711 13.8892C5.74332 13.0583 5.76332 12.2015 5.96571 11.379C6.1681 10.5566 6.54797 9.7884 7.07869 9.12832C7.60941 8.46823 8.27812 7.93226 9.03792 7.55798C9.26234 7.45225 9.64572 7.26091 10.1557 7.27027C10.515 7.27288 10.8688 7.35867 11.1894 7.5209C11.51 7.68313 11.7886 7.91739 12.0036 8.20534C12.294 8.59317 12.4542 9.06304 12.461 9.54754C12.461 9.53243 14.2204 3.82199 6.7067 3.82199C3.54902 3.82199 0.952385 6.81855 0.952385 9.44756C0.93993 10.8383 1.23749 12.2143 1.82344 13.4756C2.78105 15.5188 4.45565 17.1392 6.52925 18.029C8.60284 18.9189 10.931 19.0163 13.0717 18.3027C12.3222 18.5391 11.5303 18.61 10.7507 18.5106C9.97109 18.4113 9.22231 18.144 8.556 17.7273L8.54952 17.7244Z" fill="url(#paint2_linear_1_10155)"/>
<path opacity="0.41" d="M8.54952 17.7244C7.90796 17.3262 7.35196 16.8045 6.91386 16.1895C6.41452 15.5053 6.0709 14.7202 5.90711 13.8892C5.74332 13.0583 5.76332 12.2015 5.96571 11.379C6.1681 10.5566 6.54797 9.7884 7.07869 9.12832C7.60941 8.46823 8.27812 7.93226 9.03792 7.55798C9.26234 7.45225 9.64572 7.26091 10.1557 7.27027C10.515 7.27288 10.8688 7.35867 11.1894 7.5209C11.51 7.68313 11.7886 7.91739 12.0036 8.20534C12.294 8.59317 12.4542 9.06304 12.461 9.54754C12.461 9.53243 14.2204 3.82199 6.7067 3.82199C3.54902 3.82199 0.952385 6.81855 0.952385 9.44756C0.93993 10.8383 1.23749 12.2143 1.82344 13.4756C2.78105 15.5188 4.45565 17.1392 6.52925 18.029C8.60284 18.9189 10.931 19.0163 13.0717 18.3027C12.3222 18.5391 11.5303 18.61 10.7507 18.5106C9.97109 18.4113 9.22231 18.144 8.556 17.7273L8.54952 17.7244Z" fill="url(#paint3_radial_1_10155)"/>
<path d="M11.9014 11.0667C11.8431 11.1422 11.664 11.2465 11.664 11.4738C11.664 11.6615 11.7863 11.8421 12.0036 11.9939C13.0379 12.7131 14.9879 12.6182 14.9929 12.6182C15.7593 12.6164 16.5112 12.4089 17.1702 12.0176C17.835 11.6294 18.3867 11.0742 18.7707 10.407C19.1546 9.73979 19.3574 8.98378 19.359 8.21399C19.3777 6.60206 18.7836 5.53032 18.5433 5.05559C17.0192 2.07413 13.7291 0.359345 10.1514 0.359345C7.73182 0.359105 5.40942 1.31132 3.68646 3.01005C1.96351 4.70878 0.978498 7.01746 0.944473 9.43678C0.978999 6.80849 3.59146 4.68587 6.69879 4.68587C6.95054 4.68587 8.38624 4.71033 9.71981 5.4102C10.8951 6.02735 11.5108 6.77253 11.9388 7.51124C12.3833 8.27872 12.4625 9.24832 12.4625 9.63458C12.4625 10.0208 12.2654 10.5934 11.9014 11.0667Z" fill="url(#paint4_radial_1_10155)"/>
<path d="M11.9014 11.0667C11.8431 11.1422 11.664 11.2465 11.664 11.4738C11.664 11.6615 11.7863 11.8421 12.0036 11.9939C13.0379 12.7131 14.9879 12.6182 14.9929 12.6182C15.7593 12.6164 16.5112 12.4089 17.1702 12.0176C17.835 11.6294 18.3867 11.0742 18.7707 10.407C19.1546 9.73979 19.3574 8.98378 19.359 8.21399C19.3777 6.60206 18.7836 5.53032 18.5433 5.05559C17.0192 2.07413 13.7291 0.359345 10.1514 0.359345C7.73182 0.359105 5.40942 1.31132 3.68646 3.01005C1.96351 4.70878 0.978498 7.01746 0.944473 9.43678C0.978999 6.80849 3.59146 4.68587 6.69879 4.68587C6.95054 4.68587 8.38624 4.71033 9.71981 5.4102C10.8951 6.02735 11.5108 6.77253 11.9388 7.51124C12.3833 8.27872 12.4625 9.24832 12.4625 9.63458C12.4625 10.0208 12.2654 10.5934 11.9014 11.0667Z" fill="url(#paint5_radial_1_10155)"/>
<defs>
<linearGradient id="paint0_linear_1_10155" x1="5.16814" y1="13.0944" x2="17.996" y2="13.0944" gradientUnits="userSpaceOnUse">
<stop stop-color="#0C59A4"/>
<stop offset="1" stop-color="#114A8B"/>
</linearGradient>
<radialGradient id="paint1_radial_1_10155" cx="0" cy="0" r="1" gradientUnits="userSpaceOnUse" gradientTransform="translate(12.2531 13.1955) scale(6.86058 6.51755)">
<stop offset="0.72" stop-opacity="0"/>
<stop offset="0.95" stop-opacity="0.53"/>
<stop offset="1"/>
</radialGradient>
<linearGradient id="paint2_linear_1_10155" x1="11.9309" y1="7.52993" x2="3.91874" y2="16.2571" gradientUnits="userSpaceOnUse">
<stop stop-color="#1B9DE2"/>
<stop offset="0.16" stop-color="#1595DF"/>
<stop offset="0.67" stop-color="#0680D7"/>
<stop offset="1" stop-color="#0078D4"/>
</linearGradient>
<radialGradient id="paint3_radial_1_10155" cx="0" cy="0" r="1" gradientUnits="userSpaceOnUse" gradientTransform="translate(6.02226 14.6738) rotate(-81.3844) scale(10.3165 8.33469)">
<stop offset="0.76" stop-opacity="0"/>
<stop offset="0.95" stop-opacity="0.5"/>
<stop offset="1"/>
</radialGradient>
<radialGradient id="paint4_radial_1_10155" cx="0" cy="0" r="1" gradientUnits="userSpaceOnUse" gradientTransform="translate(2.80474 3.76711) rotate(92.2906) scale(14.5722 31.0358)">
<stop stop-color="#35C1F1"/>
<stop offset="0.11" stop-color="#34C1ED"/>
<stop offset="0.23" stop-color="#2FC2DF"/>
<stop offset="0.31" stop-color="#2BC3D2"/>
<stop offset="0.67" stop-color="#36C752"/>
</radialGradient>
<radialGradient id="paint5_radial_1_10155" cx="0" cy="0" r="1" gradientUnits="userSpaceOnUse" gradientTransform="translate(18.2126 5.92709) rotate(73.7398) scale(7.00157 5.69367)">
<stop stop-color="#66EB6E"/>
<stop offset="1" stop-color="#66EB6E" stop-opacity="0"/>
</radialGradient>
</defs>
</svg>
