<svg width="11" height="15" viewBox="0 0 11 15" fill="none" xmlns="http://www.w3.org/2000/svg">
<path d="M2.75052 15C4.26822 15 5.49997 13.88 5.49997 12.5V10H2.75052C1.23283 10 0.00107193 11.12 0.00107193 12.5C0.00107193 13.88 1.23283 15 2.75052 15Z" fill="#0ACF83"/>
<path d="M0.00107193 7.5C0.00107193 6.12 1.23283 5 2.75052 5H5.49997V10H2.75052C1.23283 10 0.00107193 8.88 0.00107193 7.5Z" fill="#A259FF"/>
<path d="M0.000211716 2.5C0.000211716 1.12 1.23196 0 2.74966 0H5.49911V5H2.74966C1.23196 5 0.000211716 3.88 0.000211716 2.5Z" fill="#F24E1E"/>
<path d="M5.5 0H8.24945C9.76715 0 10.9989 1.12 10.9989 2.5C10.9989 3.88 9.76715 5 8.24945 5H5.5V0Z" fill="#FF7262"/>
<path d="M10.9989 7.5C10.9989 8.88 9.76715 10 8.24945 10C6.73175 10 5.5 8.88 5.5 7.5C5.5 6.12 6.73175 5 8.24945 5C9.76715 5 10.9989 6.12 10.9989 7.5Z" fill="#1ABCFE"/>
</svg>
