<svg width="19" height="19" viewBox="0 0 19 19" fill="none" xmlns="http://www.w3.org/2000/svg">
<path fill-rule="evenodd" clip-rule="evenodd" d="M3.88863 0H15.1113C17.2501 0 18.9999 1.7499 18.9999 3.88863V15.1113C18.9999 17.25 17.2501 18.9999 15.1113 18.9999H3.88863C1.7499 19 0 17.2501 0 15.1113V3.88863C0 1.7499 1.7499 0 3.88863 0Z" fill="#3ACE01"/>
<path fill-rule="evenodd" clip-rule="evenodd" d="M9.48154 3.14731C13.3313 3.14731 16.4522 5.64636 16.4522 8.7291C16.4522 9.80589 16.0712 10.8113 15.4115 11.6639C15.3789 11.7125 15.3362 11.7661 15.2825 11.8253L15.2784 11.8297C15.0531 12.0993 14.7993 12.3524 14.5203 12.586C12.5927 14.3678 9.41983 16.4891 9.00106 16.1618C8.63702 15.8773 9.60064 14.4859 8.4889 14.2543C8.41134 14.2454 8.33399 14.2359 8.25729 14.225L8.25583 14.2249V14.2248C4.99057 13.7609 2.51092 11.4769 2.51092 8.7291C2.51082 5.64636 5.63174 3.14731 9.48154 3.14731Z" fill="white"/>
<path fill-rule="evenodd" clip-rule="evenodd" d="M5.43714 10.5096H6.84302C7.04299 10.5096 7.20656 10.3459 7.20656 10.146V10.1156C7.20656 9.91566 7.04299 9.7521 6.84302 9.7521H5.83101V7.4496C5.83101 7.24962 5.66745 7.08606 5.46747 7.08606H5.43714C5.23717 7.08606 5.0736 7.24962 5.0736 7.4496V10.1459C5.0736 10.3459 5.23717 10.5096 5.43714 10.5096ZM14.1487 8.81946V8.78913C14.1487 8.58915 13.985 8.42559 13.7851 8.42559H12.7731V7.84995H13.7851C13.985 7.84995 14.1487 7.68639 14.1487 7.48642V7.45609C14.1487 7.25611 13.985 7.09255 13.7851 7.09255H12.3792C12.1792 7.09255 12.0157 7.25611 12.0157 7.45609V10.1524C12.0157 10.3524 12.1792 10.516 12.3792 10.516H13.7851C13.985 10.516 14.1487 10.3524 14.1487 10.1524V10.1221C14.1487 9.9221 13.985 9.75854 13.7851 9.75854H12.7731V9.1829H13.7851C13.985 9.183 14.1487 9.01939 14.1487 8.81946ZM11.445 10.4012L11.4451 10.401C11.5124 10.3332 11.5501 10.2415 11.5502 10.146V7.4497C11.5502 7.24972 11.3867 7.08616 11.1866 7.08616H11.1563C10.9563 7.08616 10.7928 7.24972 10.7928 7.4497V9.03246L9.47872 7.26999C9.41596 7.1604 9.29776 7.08616 9.16307 7.08616H9.13274C8.93276 7.08616 8.76915 7.24972 8.76915 7.4497V10.146C8.76915 10.346 8.93271 10.5096 9.13274 10.5096H9.16307C9.36304 10.5096 9.52661 10.346 9.52661 10.146V8.53363L10.8501 10.3413C10.8582 10.354 10.8671 10.3662 10.8768 10.3777L10.8768 10.3778C10.9132 10.4274 10.9629 10.4614 11.0183 10.4822C11.0609 10.4998 11.1075 10.5096 11.1562 10.5096H11.1866C11.2458 10.5096 11.3042 10.495 11.3564 10.4671C11.3928 10.4498 11.4234 10.4275 11.445 10.4012ZM7.86352 10.5096H7.89385C8.09383 10.5096 8.25739 10.3459 8.25739 10.146V7.44965C8.25739 7.24967 8.09383 7.08611 7.89385 7.08611H7.86352C7.66354 7.08611 7.49993 7.24967 7.49993 7.44965V10.146C7.49993 10.3459 7.66354 10.5096 7.86352 10.5096Z" fill="#3ACE01"/>
</svg>
