<svg width="24" height="25" viewBox="0 0 24 25" fill="none" xmlns="http://www.w3.org/2000/svg">
<path d="M23.2661 12.5909C23.2661 14.1131 22.9781 15.6203 22.4186 17.0266C21.8591 18.4329 21.0391 19.7107 20.0053 20.787C18.9715 21.8633 17.7442 22.7171 16.3935 23.2996C15.0427 23.8821 13.595 24.1819 12.133 24.1819C9.18036 24.1819 6.34863 22.9607 4.26079 20.787C2.17294 18.6133 1 15.6651 1 12.5909C1 9.51683 2.17294 6.56863 4.26079 4.39491C6.34863 2.22119 9.18036 1 12.133 1C13.595 1 15.0427 1.29981 16.3935 1.88231C17.7442 2.46481 18.9715 3.31859 20.0053 4.39491C21.0391 5.47123 21.8591 6.749 22.4186 8.15528C22.9781 9.56156 23.2661 11.0688 23.2661 12.5909Z" fill="url(#paint0_linear_1_10185)" stroke="#CDCDCD" stroke-width="0.0930123" stroke-linecap="round" stroke-linejoin="round"/>
<path d="M22.3937 12.5909C22.3937 15.4242 21.3127 18.1413 19.3884 20.1447C17.4642 22.1481 14.8543 23.2736 12.133 23.2736C9.41173 23.2736 6.80189 22.1481 4.87764 20.1447C2.9534 18.1413 1.87237 15.4242 1.87237 12.5909C1.87237 9.75772 2.9534 7.04054 4.87764 5.03715C6.80189 3.03376 9.41173 1.90826 12.133 1.90826C14.8543 1.90826 17.4642 3.03376 19.3884 5.03715C21.3127 7.04054 22.3937 9.75772 22.3937 12.5909Z" fill="url(#paint1_radial_1_10185)"/>
<path d="M12.133 2.46536C12.0501 2.46536 11.9834 2.53482 11.9834 2.62111V4.41762C11.9834 4.50391 12.0501 4.57337 12.133 4.57337C12.2159 4.57337 12.2826 4.50391 12.2826 4.41762V2.62111C12.2826 2.53482 12.2159 2.46536 12.133 2.46536ZM11.1544 2.52976C11.1444 2.52865 11.1342 2.52865 11.1239 2.52989C11.0415 2.53885 10.9821 2.61514 10.9907 2.70096L11.0661 3.45254C11.0747 3.53836 11.148 3.60025 11.2304 3.59129C11.3128 3.58233 11.3723 3.50603 11.3637 3.42021L11.2883 2.66864C11.2808 2.59354 11.2237 2.53677 11.1543 2.52976H11.1544ZM13.1185 2.5305C13.0491 2.53746 12.9921 2.59422 12.9845 2.6693L12.9086 3.42082C12.8999 3.50664 12.9593 3.58301 13.0418 3.59203C13.1242 3.60106 13.1975 3.53924 13.2061 3.45342L13.2821 2.70184C13.2907 2.61603 13.2313 2.53972 13.1489 2.5307C13.1386 2.52959 13.1284 2.52959 13.1185 2.53051V2.5305ZM10.149 2.68154C10.1391 2.68162 10.129 2.68265 10.1188 2.68487C10.0377 2.70274 9.98628 2.78511 10.0034 2.86952L10.3608 4.62705C10.378 4.71146 10.4571 4.76504 10.5382 4.74717C10.6192 4.7293 10.6707 4.647 10.6535 4.56258L10.2962 2.805C10.2811 2.73113 10.2187 2.68088 10.149 2.68144L10.149 2.68154ZM14.1238 2.68302C14.0541 2.68228 13.9916 2.73258 13.9766 2.80644L13.618 4.56375C13.6007 4.64816 13.6522 4.73054 13.7332 4.74847C13.8143 4.76642 13.8934 4.71288 13.9107 4.62848L14.2692 2.87116C14.2865 2.78676 14.2351 2.70437 14.154 2.68645C14.1439 2.68423 14.1337 2.68311 14.1238 2.68311L14.1238 2.68302ZM9.18961 2.96319C9.17024 2.96134 9.15024 2.96356 9.13053 2.97037C9.05171 2.99705 9.00885 3.08452 9.03447 3.16658L9.25876 3.88529C9.28438 3.96736 9.36846 4.01198 9.44729 3.98531C9.52611 3.95864 9.56891 3.8711 9.54329 3.78904L9.319 3.07033C9.29981 3.00878 9.24771 2.96832 9.18961 2.96318V2.96319ZM15.0778 2.96356C15.0197 2.9687 14.9676 3.00916 14.9484 3.0707L14.724 3.78935C14.6983 3.87141 14.7412 3.95896 14.82 3.98563C14.8988 4.01231 14.9829 3.96772 15.0085 3.88568L15.2329 3.16696C15.2585 3.0849 15.2157 2.99736 15.1369 2.97068C15.1172 2.96402 15.0971 2.96184 15.0778 2.96354V2.96356ZM8.24084 3.32466C8.2214 3.32503 8.20174 3.32947 8.1828 3.33824C8.10711 3.37328 8.07321 3.46495 8.10687 3.5438L8.80772 5.18543C8.84138 5.26428 8.92942 5.29953 9.00515 5.26448C9.08084 5.22944 9.11481 5.13778 9.08115 5.05893L8.38023 3.41729C8.355 3.35815 8.29914 3.32349 8.24084 3.32466ZM16.0373 3.33017C15.979 3.32906 15.9231 3.36351 15.8978 3.4226L15.1948 5.06323C15.161 5.14203 15.1948 5.23377 15.2704 5.26892C15.3461 5.30407 15.4342 5.26894 15.468 5.19014L16.171 3.54952C16.2047 3.47071 16.171 3.37898 16.0953 3.34382C16.0764 3.33505 16.0567 3.33061 16.0373 3.33017V3.33017ZM7.36019 3.80979C7.33147 3.80757 7.30188 3.81423 7.27496 3.83043C7.20318 3.87358 7.17877 3.96846 7.22021 4.04319L7.58313 4.69764C7.62457 4.77237 7.7157 4.79778 7.78748 4.75463C7.85925 4.71149 7.88367 4.61661 7.84223 4.54189L7.47931 3.88744C7.4534 3.84073 7.40806 3.81328 7.36019 3.8098V3.80979ZM16.9058 3.80979C16.858 3.81312 16.8127 3.84072 16.7868 3.88743L16.4238 4.54187C16.3824 4.6166 16.4069 4.71148 16.4786 4.75462C16.5504 4.79777 16.6415 4.77235 16.683 4.69763L17.0459 4.04318C17.0873 3.96845 17.0629 3.87356 16.9911 3.83042C16.9642 3.81425 16.9346 3.80771 16.9058 3.80978V3.80979ZM6.50504 4.36509C6.47625 4.3662 6.44743 4.37582 6.42227 4.3948C6.35519 4.44547 6.34036 4.54248 6.38904 4.61233L7.40224 6.06648C7.4509 6.13633 7.54415 6.15177 7.61123 6.10112C7.67832 6.05045 7.69315 5.95344 7.64446 5.88359L6.6312 4.42943C6.60077 4.38578 6.55299 4.3634 6.50504 4.3651V4.36509ZM17.7717 4.37301C17.7238 4.37116 17.676 4.39354 17.6455 4.43713L16.6304 5.88988C16.5816 5.95966 16.5963 6.05671 16.6633 6.10747C16.7304 6.15823 16.8236 6.14296 16.8723 6.07321L17.8874 4.62046C17.9362 4.55068 17.9214 4.45363 17.8544 4.40287C17.8293 4.38385 17.8005 4.37408 17.7717 4.37301ZM5.74066 5.03249C5.70248 5.03027 5.66351 5.04356 5.63271 5.07242C5.57112 5.13015 5.56617 5.22824 5.62163 5.29237L6.10728 5.85406C6.16273 5.91819 6.25693 5.92334 6.31853 5.8656C6.38013 5.80787 6.38509 5.70972 6.32962 5.64559L5.84404 5.08397C5.81632 5.05189 5.77886 5.03457 5.74066 5.03248V5.03249ZM18.5265 5.03361C18.4883 5.03583 18.4508 5.05303 18.4231 5.08509L17.9375 5.64665C17.882 5.71077 17.8869 5.80892 17.9485 5.86666C18.0101 5.9244 18.1043 5.91922 18.1598 5.85511L18.6455 5.29356C18.7009 5.22943 18.696 5.13129 18.6344 5.07355C18.6036 5.04469 18.5647 5.03154 18.5265 5.03362L18.5265 5.03361ZM5.00806 5.76515C4.96987 5.76737 4.93248 5.78458 4.90475 5.81665C4.8493 5.88078 4.85427 5.97886 4.91585 6.03659L6.19828 7.23854C6.25988 7.29627 6.35408 7.29111 6.40953 7.227C6.46498 7.16287 6.46009 7.06478 6.39847 7.00705L5.11598 5.8051C5.08516 5.77624 5.04622 5.76308 5.00803 5.76517L5.00806 5.76515ZM19.2626 5.77041C19.2244 5.76819 19.1854 5.78144 19.1546 5.81027L17.8714 7.01128C17.8098 7.06897 17.8047 7.16705 17.8601 7.23123C17.9155 7.29539 18.0098 7.30061 18.0714 7.24292L19.3547 6.04191C19.4163 5.98422 19.4213 5.88614 19.3659 5.82196C19.3382 5.78988 19.3008 5.77252 19.2626 5.77041H19.2626ZM4.39883 6.58074C4.35087 6.57889 4.30306 6.60139 4.27261 6.64501C4.2239 6.71482 4.23867 6.81181 4.30574 6.86253L4.89294 7.30671C4.95999 7.35744 5.05315 7.34212 5.10187 7.2723C5.15059 7.20249 5.13585 7.10543 5.06882 7.05471L4.48161 6.61053C4.45648 6.59151 4.42761 6.58181 4.39884 6.58074L4.39883 6.58074ZM19.8713 6.58641C19.8425 6.58752 19.8137 6.5971 19.7885 6.61612L19.201 7.05991C19.134 7.11058 19.1191 7.20765 19.1678 7.2775C19.2164 7.34734 19.3096 7.36271 19.3767 7.31206L19.9642 6.86827C20.0313 6.8176 20.0461 6.72059 19.9974 6.65075C19.967 6.6071 19.9192 6.58471 19.8713 6.58642V6.58641ZM3.82951 7.45072C3.78164 7.45405 3.73636 7.48165 3.71045 7.52836C3.66901 7.60308 3.69343 7.69796 3.76521 7.7411L5.25954 8.63936C5.33131 8.6825 5.42245 8.65708 5.46388 8.58236C5.50532 8.50763 5.48091 8.41275 5.40913 8.36961L3.91479 7.47135C3.88789 7.45518 3.85823 7.44863 3.82951 7.4507V7.45072ZM20.4365 7.45072C20.4078 7.4485 20.3782 7.45516 20.3512 7.47136L18.8569 8.36962C18.7851 8.41276 18.7607 8.50765 18.8022 8.58237C18.8436 8.6571 18.9347 8.68251 19.0065 8.63937L20.5009 7.74112C20.5727 7.69798 20.5971 7.60309 20.5556 7.52837C20.5297 7.48166 20.4844 7.45422 20.4365 7.45073V7.45072ZM3.39906 8.37801C3.34076 8.37653 3.28485 8.41127 3.25953 8.47037C3.22577 8.54917 3.25951 8.64091 3.3352 8.67606L3.99815 8.98393C4.07384 9.01908 4.16196 8.98395 4.19572 8.90515C4.22948 8.82634 4.19567 8.7346 4.11998 8.69945L3.4571 8.39159C3.4382 8.38278 3.41849 8.37841 3.39906 8.37801ZM20.8699 8.38441C20.8504 8.38478 20.8307 8.38922 20.8118 8.39799L20.1487 8.70532C20.073 8.74043 20.0391 8.83211 20.0728 8.91094C20.1066 8.98977 20.1947 9.02502 20.2704 8.98993L20.9335 8.68253C21.0092 8.64745 21.043 8.55573 21.0093 8.4769C20.984 8.41778 20.9282 8.3832 20.8699 8.38441ZM3.01542 9.3472C2.95732 9.35227 2.90523 9.39268 2.88597 9.45421C2.86031 9.53625 2.90302 9.62383 2.98184 9.65056L4.62248 10.2071C4.70128 10.2339 4.7854 10.1893 4.81107 10.1073C4.83673 10.0253 4.79401 9.9377 4.7152 9.91097L3.07456 9.35439C3.05488 9.34769 3.03479 9.34551 3.01542 9.34721V9.3472ZM21.2528 9.35386C21.2334 9.35201 21.2134 9.35423 21.1937 9.36104L19.5527 9.91641C19.4739 9.94308 19.4311 10.0306 19.4567 10.1127C19.4823 10.1947 19.5664 10.2393 19.6452 10.2126L21.2862 9.65727C21.365 9.6306 21.4079 9.54305 21.3823 9.46099C21.363 9.39945 21.3109 9.35898 21.2528 9.35385V9.35386ZM2.77641 10.3646C2.70671 10.3638 2.64421 10.4142 2.62913 10.4881C2.61189 10.5725 2.66332 10.6548 2.74438 10.6728L3.45439 10.8299C3.53546 10.8478 3.61458 10.7943 3.63181 10.7099C3.64905 10.6255 3.59763 10.5431 3.51657 10.5252L2.80662 10.3681C2.7965 10.3658 2.78636 10.3647 2.77641 10.3647V10.3646ZM21.49 10.3661C21.48 10.3661 21.4699 10.3675 21.4598 10.3694L20.7498 10.5264C20.6687 10.5444 20.6173 10.6267 20.6346 10.7111C20.6518 10.7955 20.7309 10.849 20.812 10.8311L21.5219 10.6741C21.603 10.6561 21.6545 10.5738 21.6372 10.4894C21.6222 10.4155 21.5597 10.3653 21.49 10.3659L21.49 10.3661ZM2.5955 11.3879C2.52612 11.3948 2.46902 11.4515 2.4614 11.5266C2.45269 11.6124 2.51198 11.6888 2.5944 11.6979L4.31038 11.8868C4.3928 11.8958 4.46618 11.834 4.47489 11.7482C4.4836 11.6624 4.42424 11.586 4.34182 11.577L2.62584 11.3881C2.61554 11.387 2.60541 11.387 2.5955 11.3879V11.3879ZM21.6722 11.4014C21.6622 11.4002 21.652 11.4002 21.6417 11.4015L19.9256 11.588C19.8431 11.5969 19.7837 11.6732 19.7923 11.759C19.8009 11.8449 19.8742 11.9067 19.9566 11.8978L21.6728 11.7113C21.7552 11.7023 21.8146 11.626 21.806 11.5402C21.7985 11.4651 21.7415 11.4084 21.6721 11.4014L21.6722 11.4014ZM2.56644 12.4355C2.48356 12.4355 2.41685 12.5049 2.41685 12.5912C2.41685 12.6775 2.48356 12.747 2.56644 12.747H3.29228C3.37515 12.747 3.44193 12.6775 3.44193 12.5912C3.44193 12.5049 3.37515 12.4355 3.29228 12.4355H2.56644ZM20.9738 12.4355C20.8909 12.4355 20.8242 12.5049 20.8242 12.5912C20.8242 12.6775 20.8909 12.747 20.9738 12.747H21.6996C21.7825 12.747 21.8492 12.6775 21.8492 12.5912C21.8492 12.5049 21.7825 12.4355 21.6996 12.4355H20.9738ZM4.33983 13.2845C4.32991 13.2834 4.31978 13.2834 4.30947 13.2846L2.59323 13.4711C2.5108 13.4801 2.45138 13.5564 2.45998 13.6422C2.46858 13.728 2.54185 13.7899 2.62428 13.7809L4.34053 13.5945C4.42296 13.5855 4.48238 13.5092 4.47379 13.4234C4.46625 13.3483 4.40918 13.2915 4.33982 13.2845H4.33983ZM19.9253 13.2955C19.8559 13.3025 19.7988 13.3591 19.7912 13.4342C19.7825 13.52 19.8418 13.5964 19.9242 13.6055L21.6402 13.7944C21.7226 13.8034 21.796 13.7417 21.8047 13.6558C21.8134 13.57 21.7541 13.4936 21.6716 13.4846L19.9557 13.2957C19.9454 13.2946 19.9352 13.2946 19.9253 13.2956L19.9253 13.2955ZM3.48435 14.3477C3.4744 14.3478 3.46427 14.3488 3.45414 14.3511L2.74413 14.5081C2.66306 14.526 2.61166 14.6084 2.62888 14.6928C2.64612 14.7772 2.72524 14.8307 2.80631 14.8128L3.51632 14.6558C3.59739 14.6379 3.64878 14.5555 3.63156 14.4711C3.61649 14.3973 3.55405 14.347 3.48436 14.3476L3.48435 14.3477ZM20.7815 14.3492C20.7118 14.3485 20.6494 14.3988 20.6343 14.4726C20.6171 14.557 20.6684 14.6394 20.7495 14.6573L21.4595 14.8144C21.5405 14.8324 21.6197 14.7789 21.6369 14.6945C21.6541 14.6101 21.6027 14.5277 21.5217 14.5097L20.8117 14.3526C20.8016 14.3504 20.7915 14.3493 20.7815 14.3493L20.7815 14.3492ZM4.67995 14.9627C4.66058 14.9608 4.64058 14.963 4.62087 14.9698L2.97985 15.5252C2.90103 15.5519 2.85822 15.6394 2.88384 15.7215C2.90946 15.8035 2.99354 15.8481 3.07236 15.8214L4.71333 15.2661C4.79215 15.2394 4.83501 15.1518 4.80939 15.0698C4.79017 15.0082 4.73805 14.9678 4.67995 14.9626V14.9627ZM19.5845 14.9682C19.5264 14.9732 19.4743 15.0137 19.455 15.0752C19.4294 15.1572 19.4721 15.2448 19.5509 15.2715L21.1915 15.8281C21.2703 15.8548 21.3545 15.8103 21.3801 15.7283C21.4058 15.6462 21.3631 15.5587 21.2843 15.5319L19.6436 14.9754C19.6239 14.9687 19.6039 14.9665 19.5845 14.9682V14.9682ZM4.05374 16.1791C4.0343 16.1794 4.01462 16.1838 3.99569 16.1926L3.33256 16.5C3.25684 16.535 3.22305 16.6268 3.25676 16.7056C3.29048 16.7844 3.37855 16.8196 3.45426 16.7845L4.1174 16.4772C4.19311 16.4421 4.22691 16.3504 4.1932 16.2715C4.16793 16.2124 4.11204 16.1778 4.05374 16.1791V16.1791ZM20.2099 16.185C20.1516 16.1835 20.0957 16.2183 20.0704 16.2773C20.0366 16.3562 20.0704 16.4479 20.1461 16.483L20.8089 16.7909C20.8846 16.8261 20.9727 16.7909 21.0065 16.7121C21.0403 16.6333 21.0065 16.5416 20.9308 16.5064L20.268 16.1986C20.249 16.1898 20.2293 16.1854 20.2099 16.185V16.185ZM5.34483 16.5225C5.31611 16.5203 5.28645 16.5269 5.25954 16.5431L3.76521 17.4414C3.69343 17.4845 3.66901 17.5794 3.71045 17.6541C3.75189 17.7289 3.84302 17.7543 3.91479 17.7111L5.40913 16.813C5.48091 16.7698 5.50532 16.6749 5.46388 16.6001C5.43798 16.5534 5.3927 16.526 5.34483 16.5225V16.5225ZM18.9213 16.5225C18.8734 16.5258 18.8281 16.5534 18.8022 16.6001C18.7607 16.6749 18.7851 16.7698 18.8569 16.8129L20.3512 17.7111C20.423 17.7543 20.5142 17.7289 20.5556 17.6541C20.5971 17.5794 20.5727 17.4845 20.5009 17.4414L19.0065 16.5431C18.9796 16.527 18.95 16.5204 18.9213 16.5225V16.5225ZM4.97209 17.8407C4.94331 17.8418 4.91449 17.8514 4.88933 17.8705L4.30185 18.3142C4.23477 18.3649 4.21994 18.4619 4.26859 18.5318C4.31726 18.6016 4.41045 18.6171 4.47753 18.5664L5.06506 18.1226C5.13214 18.0719 5.14698 17.9749 5.09832 17.9051C5.0679 17.8614 5.02005 17.8389 4.97209 17.8407V17.8407ZM19.2904 17.8459C19.2424 17.8441 19.1946 17.8666 19.1642 17.9102C19.1154 17.98 19.1302 18.0771 19.1973 18.1278L19.7845 18.572C19.8516 18.6227 19.9447 18.6073 19.9934 18.5375C20.0421 18.4677 20.0274 18.3707 19.9604 18.3199L19.3732 17.8758C19.348 17.8567 19.3192 17.847 19.2904 17.8459L19.2904 17.8459ZM6.30263 17.8997C6.26445 17.8975 6.2255 17.9107 6.19468 17.9396L4.91141 19.1406C4.84978 19.1983 4.84476 19.2963 4.90017 19.3605C4.95558 19.4247 5.0498 19.4299 5.11143 19.3722L6.3947 18.1712C6.45633 18.1135 6.46135 18.0154 6.40594 17.9513C6.37825 17.9192 6.34082 17.9018 6.30263 17.8997ZM17.9598 17.904C17.9217 17.9062 17.8842 17.9234 17.8565 17.9555C17.801 18.0196 17.806 18.1177 17.8676 18.1754L19.15 19.3774C19.2116 19.4351 19.3059 19.4299 19.3613 19.3658C19.4168 19.3017 19.4118 19.2036 19.3502 19.1459L18.0677 17.9439C18.0369 17.9151 17.998 17.9019 17.9598 17.904V17.904ZM7.52005 19.045C7.47209 19.0431 7.42423 19.0655 7.39376 19.1091L6.37869 20.5619C6.32993 20.6316 6.3446 20.7287 6.4116 20.7794C6.47862 20.8302 6.57184 20.8149 6.62059 20.7451L7.63567 19.2924C7.68442 19.2226 7.66975 19.1256 7.60276 19.0748C7.57763 19.0558 7.54882 19.046 7.52005 19.045ZM16.7377 19.0515C16.7089 19.0526 16.68 19.0622 16.6549 19.0812C16.5878 19.1319 16.573 19.2289 16.6216 19.2987L17.6348 20.7529C17.6835 20.8227 17.7767 20.8382 17.8438 20.7875C17.9108 20.7369 17.9257 20.6398 17.877 20.57L16.8638 19.1158C16.8334 19.0722 16.7856 19.0498 16.7377 19.0515V19.0515ZM6.20966 19.2759C6.17147 19.2781 6.13402 19.2953 6.10629 19.3274L5.62064 19.8889C5.56518 19.953 5.57009 20.0512 5.63169 20.1089C5.69329 20.1667 5.78749 20.1615 5.84294 20.0973L6.32866 19.5358C6.38412 19.4717 6.37915 19.3735 6.31757 19.3158C6.28676 19.2869 6.24787 19.2738 6.20968 19.2758L6.20966 19.2759ZM18.0555 19.2766C18.0173 19.2744 17.9784 19.2877 17.9476 19.3165C17.886 19.3743 17.881 19.4723 17.9365 19.5365L18.422 20.0982C18.4775 20.1623 18.5717 20.1675 18.6333 20.1097C18.6949 20.052 18.6999 19.9538 18.6444 19.8897L18.1588 19.3281C18.1311 19.296 18.0936 19.2787 18.0554 19.2766L18.0555 19.2766ZM8.93756 19.8996C8.87926 19.8981 8.82342 19.9329 8.7981 19.992L8.09506 21.6326C8.0613 21.7114 8.09504 21.8031 8.17073 21.8383C8.24642 21.8734 8.33453 21.8383 8.36829 21.7595L9.07133 20.1189C9.10509 20.0401 9.07135 19.9483 8.99566 19.9132C8.97675 19.9044 8.95699 19.9 8.93756 19.8996ZM15.319 19.9041C15.2996 19.9045 15.2798 19.9088 15.2609 19.9176C15.1852 19.9527 15.1513 20.0443 15.185 20.1232L15.8858 21.7648C15.9195 21.8436 16.0076 21.8789 16.0833 21.8439C16.159 21.8088 16.1929 21.7172 16.1592 21.6383L15.4584 19.9967C15.4331 19.9376 15.3773 19.9029 15.319 19.9041ZM7.70219 20.4068C7.65432 20.4102 7.60902 20.4378 7.58313 20.4845L7.22021 21.1389C7.17877 21.2137 7.20318 21.3085 7.27496 21.3517C7.34674 21.3948 7.43787 21.3694 7.47931 21.2947L7.84223 20.6402C7.88367 20.5655 7.85926 20.4706 7.78748 20.4275C7.76057 20.4113 7.73091 20.4048 7.70219 20.4068V20.4068ZM16.5638 20.4068C16.5351 20.4046 16.5055 20.4113 16.4786 20.4275C16.4069 20.4706 16.3824 20.5655 16.4239 20.6402L16.7868 21.2947C16.8282 21.3694 16.9194 21.3948 16.9911 21.3517C17.0629 21.3085 17.0873 21.2137 17.0459 21.1389L16.683 20.4845C16.6571 20.4378 16.6117 20.4103 16.5638 20.4069V20.4068ZM10.5026 20.4303C10.433 20.4296 10.3705 20.4799 10.3554 20.5537L9.99685 22.311C9.97962 22.3954 10.031 22.4778 10.1121 22.4958C10.1932 22.5137 10.2723 22.4602 10.2895 22.3758L10.6481 20.6185C10.6653 20.534 10.6139 20.4517 10.5329 20.4337C10.5227 20.4315 10.5126 20.4304 10.5027 20.4304L10.5026 20.4303ZM13.7581 20.4314C13.7481 20.4315 13.7381 20.4325 13.728 20.4347C13.6469 20.4526 13.5954 20.5349 13.6126 20.6193L13.9699 22.3769C13.9871 22.4613 14.0662 22.5149 14.1473 22.497C14.2284 22.4792 14.2798 22.3968 14.2627 22.3124L13.9052 20.5549C13.8902 20.4811 13.8278 20.4308 13.7581 20.4314L13.7581 20.4314ZM12.133 20.6087C12.0501 20.6087 11.9834 20.6781 11.9834 20.7644V22.5609C11.9834 22.6472 12.0501 22.7167 12.133 22.7167C12.2159 22.7167 12.2826 22.6472 12.2826 22.5609V20.7644C12.2826 20.6781 12.2159 20.6087 12.133 20.6087ZM9.38698 21.1892C9.32888 21.1943 9.27675 21.2348 9.25753 21.2963L9.03317 22.015C9.00755 22.0971 9.05038 22.1846 9.12918 22.2113C9.208 22.238 9.29208 22.1933 9.31771 22.1113L9.54207 21.3927C9.56769 21.3106 9.52486 21.223 9.44606 21.1964C9.42637 21.1897 9.40635 21.1875 9.38698 21.1892V21.1892ZM14.8779 21.1896C14.8585 21.1877 14.8385 21.1899 14.8188 21.1967C14.74 21.2234 14.6971 21.3109 14.7227 21.393L14.947 22.1117C14.9727 22.1938 15.0567 22.2383 15.1356 22.2116C15.2144 22.185 15.2573 22.0975 15.2316 22.0154L15.0073 21.2967C14.9881 21.2352 14.936 21.1947 14.8779 21.1896V21.1896ZM11.194 21.5898C11.1246 21.5968 11.0675 21.6535 11.0599 21.7286L10.984 22.4802C10.9754 22.566 11.0347 22.6423 11.1172 22.6513C11.1996 22.6603 11.2729 22.5985 11.2816 22.5127L11.3575 21.7612C11.3661 21.6754 11.3068 21.599 11.2243 21.59C11.214 21.5889 11.2039 21.5889 11.194 21.5898L11.194 21.5898ZM13.066 21.5906C13.0561 21.5895 13.0459 21.5895 13.0356 21.5907C12.9532 21.5997 12.8937 21.676 12.9023 21.7618L12.9778 22.5134C12.9864 22.5993 13.0596 22.6611 13.1421 22.6521C13.2245 22.6432 13.2839 22.5669 13.2753 22.481L13.2 21.7295C13.1925 21.6544 13.1354 21.5976 13.066 21.5906L13.066 21.5906Z" fill="#F4F2F3"/>
<g opacity="0.409" filter="url(#filter0_f_1_10185)">
<path d="M19.1447 6.3611L10.96 11.312L5.7851 19.7939L13.3556 13.9559L19.1447 6.3611Z" fill="black"/>
</g>
<path d="M13.306 13.8699L10.96 11.312L19.2821 5.48346L13.306 13.8699Z" fill="#FF5150"/>
<path d="M13.306 13.8699L10.96 11.312L4.9839 19.6984L13.306 13.8699Z" fill="#F1F1F1"/>
<path opacity="0.243" d="M4.98389 19.6984L13.306 13.8699L19.2821 5.48346L4.98389 19.6984Z" fill="black"/>
<defs>
<filter id="filter0_f_1_10185" x="5.11177" y="5.68777" width="14.7063" height="14.7795" filterUnits="userSpaceOnUse" color-interpolation-filters="sRGB">
<feFlood flood-opacity="0" result="BackgroundImageFix"/>
<feBlend mode="normal" in="SourceGraphic" in2="BackgroundImageFix" result="shape"/>
<feGaussianBlur stdDeviation="0.336663" result="effect1_foregroundBlur_1_10185"/>
</filter>
<linearGradient id="paint0_linear_1_10185" x1="12.133" y1="24.1819" x2="12.133" y2="1" gradientUnits="userSpaceOnUse">
<stop stop-color="#BDBDBD"/>
<stop offset="1" stop-color="white"/>
</linearGradient>
<radialGradient id="paint1_radial_1_10185" cx="0" cy="0" r="1" gradientUnits="userSpaceOnUse" gradientTransform="translate(12.1797 11.0334) scale(11.1331 11.591)">
<stop stop-color="#06C2E7"/>
<stop offset="0.25" stop-color="#0DB8EC"/>
<stop offset="0.5" stop-color="#12AEF1"/>
<stop offset="0.75" stop-color="#1F86F9"/>
<stop offset="1" stop-color="#107DDD"/>
</radialGradient>
</defs>
</svg>
