<svg width="14" height="17" viewBox="0 0 14 17" fill="none" xmlns="http://www.w3.org/2000/svg">
<g clip-path="url(#clip0_1_10167)">
<path d="M3.40108 13.3799C2.91712 13.3799 2.52252 13.7555 2.52252 14.2216C2.52252 14.5384 2.70569 14.8098 2.97824 14.9547L6.37488 16.769C6.64431 16.9204 6.94841 16.9999 7.25771 16.9998C7.46451 16.9998 7.6619 16.9636 7.84507 16.9002L9.00542 16.579V13.3755C9.01021 13.3799 3.40553 13.3799 3.40091 13.3799H3.40108Z" fill="url(#paint0_linear_1_10167)"/>
<path d="M3.40108 13.3799C2.91712 13.3799 2.52252 13.7555 2.52252 14.2216C2.52252 14.5384 2.70569 14.8098 2.97824 14.9547L6.37488 16.769C6.64431 16.9204 6.94841 16.9999 7.25771 16.9998C7.46451 16.9998 7.6619 16.9636 7.84507 16.9002L9.00542 16.579V13.3755C9.01021 13.3799 3.40553 13.3799 3.40091 13.3799H3.40108Z" fill="url(#paint1_linear_1_10167)"/>
<path d="M7.77045 0.0681405C7.61002 0.0224824 7.44392 -0.000350313 7.27707 0.000319495C6.99991 0.000319495 6.72275 0.0546825 6.47366 0.181294C6.42214 0.20396 0.948918 3.16754 0.948918 3.16754C0.873765 3.20384 0.803231 3.249 0.737494 3.29433C0.728255 3.29876 0.723458 3.30336 0.714042 3.30797C0.671757 3.33949 0.634091 3.37118 0.591984 3.40288C0.573152 3.41652 0.554319 3.43475 0.540283 3.44821C0.516831 3.4707 0.493201 3.49337 0.474546 3.51603C0.408809 3.58385 0.295991 3.72853 0.295991 3.72853C0.102433 4.00279 -0.000984886 4.33014 -3.08734e-06 4.66545V12.5384C-3.08734e-06 13.0046 0.394596 13.3802 0.878562 13.3802C1.00062 13.3802 1.11344 13.3575 1.21684 13.3122L2.7812 12.4661C3.06298 12.3305 3.28862 12.0996 3.40606 11.8145C3.43413 11.7557 3.45758 11.6834 3.47179 11.6108C3.47641 11.5928 3.48121 11.5701 3.48121 11.552C3.48121 11.5432 3.48583 11.5295 3.48583 11.5205C3.49063 11.4886 3.49525 11.4525 3.49525 11.421C3.49525 11.3937 3.50004 11.3711 3.50004 11.344V7.15393V5.84621C3.50004 5.47966 3.66438 5.1494 3.92289 4.91867C3.92289 4.91867 3.80066 5.02722 3.92289 4.91867C4.04495 4.81012 4.20467 4.71503 4.39264 4.65181C4.58044 4.58382 9.02478 3.03651 9.02478 3.03651V0.425662L7.77045 0.0681405Z" fill="url(#paint2_linear_1_10167)"/>
<path d="M7.77045 0.0681405C7.61002 0.0224824 7.44392 -0.000350313 7.27707 0.000319495C6.99991 0.000319495 6.72275 0.0546825 6.47366 0.181294C6.42214 0.20396 0.948918 3.16754 0.948918 3.16754C0.873765 3.20384 0.803231 3.249 0.737494 3.29433C0.728255 3.29876 0.723458 3.30336 0.714042 3.30797C0.671757 3.33949 0.634091 3.37118 0.591984 3.40288C0.573152 3.41652 0.554319 3.43475 0.540283 3.44821C0.516831 3.4707 0.493201 3.49337 0.474546 3.51603C0.408809 3.58385 0.295991 3.72853 0.295991 3.72853C0.102433 4.00279 -0.000984886 4.33014 -3.08734e-06 4.66545V12.5384C-3.08734e-06 13.0046 0.394596 13.3802 0.878562 13.3802C1.00062 13.3802 1.11344 13.3575 1.21684 13.3122L2.7812 12.4661C3.06298 12.3305 3.28862 12.0996 3.40606 11.8145C3.43413 11.7557 3.45758 11.6834 3.47179 11.6108C3.47641 11.5928 3.48121 11.5701 3.48121 11.552C3.48121 11.5432 3.48583 11.5295 3.48583 11.5205C3.49063 11.4886 3.49525 11.4525 3.49525 11.421C3.49525 11.3937 3.50004 11.3711 3.50004 11.344V7.15393V5.84621C3.50004 5.47966 3.66438 5.1494 3.92289 4.91867C3.92289 4.91867 3.80066 5.02722 3.92289 4.91867C4.04495 4.81012 4.20467 4.71503 4.39264 4.65181C4.58044 4.58382 9.02478 3.03651 9.02478 3.03651V0.425662L7.77045 0.0681405Z" fill="url(#paint3_linear_1_10167)"/>
<path d="M12.7739 1.47885L7.84578 0.0900269C8.55983 0.357061 9.00595 0.958774 9.00595 1.69188C9.00595 1.69188 9.00151 15.0082 9.00595 15.3294C9.01075 16.0533 8.53158 16.6732 7.84578 16.904C7.99609 16.8632 12.7739 15.5375 12.7739 15.5375C13.4832 15.3204 13.9954 14.6868 13.9954 13.9314V3.08495C14 2.33414 13.4832 1.69595 12.7739 1.47885Z" fill="url(#paint4_linear_1_10167)"/>
</g>
<defs>
<linearGradient id="paint0_linear_1_10167" x1="3.01004" y1="14.7615" x2="15.2203" y2="15.8707" gradientUnits="userSpaceOnUse">
<stop stop-color="#F32B44"/>
<stop offset="0.6" stop-color="#A4070A"/>
</linearGradient>
<linearGradient id="paint1_linear_1_10167" x1="11.2845" y1="15.4588" x2="5.86384" y2="14.9663" gradientUnits="userSpaceOnUse">
<stop stop-opacity="0.4"/>
<stop offset="1" stop-opacity="0"/>
</linearGradient>
<linearGradient id="paint2_linear_1_10167" x1="7.94848" y1="-0.586164" x2="-1.00749" y2="12.6938" gradientUnits="userSpaceOnUse">
<stop stop-color="#800600"/>
<stop offset="0.6" stop-color="#C72127"/>
<stop offset="0.728" stop-color="#C13959"/>
<stop offset="0.847" stop-color="#BC4B81"/>
<stop offset="0.942" stop-color="#B95799"/>
<stop offset="1" stop-color="#B85BA2"/>
</linearGradient>
<linearGradient id="paint3_linear_1_10167" x1="8.14124" y1="-0.851428" x2="6.24461" y2="1.96093" gradientUnits="userSpaceOnUse">
<stop stop-opacity="0.4"/>
<stop offset="1" stop-opacity="0"/>
</linearGradient>
<linearGradient id="paint4_linear_1_10167" x1="10.924" y1="-0.865134" x2="10.924" y2="15.7214" gradientUnits="userSpaceOnUse">
<stop stop-color="#FFB900"/>
<stop offset="0.166" stop-color="#EF8400"/>
<stop offset="0.313" stop-color="#E25C01"/>
<stop offset="0.429" stop-color="#DB4401"/>
<stop offset="0.5" stop-color="#D83B01"/>
</linearGradient>
<clipPath id="clip0_1_10167">
<rect width="14" height="17" fill="white"/>
</clipPath>
</defs>
</svg>
