<svg width="24" height="24" viewBox="0 0 24 24" fill="none" xmlns="http://www.w3.org/2000/svg">
<path d="M20.3 4H3.8C2.2 4 1 5.2 1 6.8V15C1 16.5 2.2 17.7 3.8 17.7H6C6 17.7 6.0301 17.7 6.1 17.6L6.8 16.7L7.6 15.7L9.8 12.7C10.3 12 11.1 11.6 12 11.6C12.9 11.6 13.7 12 14.3 12.7L16.5 15.7L17.3 16.7L18 17.6L18.1 17.7H20.4C21.9 17.7 23.2 16.5 23.2 15V6.8C23 5.2 21.8 4 20.3 4Z" fill="#DADEE6"/>
<path d="M15.5 17.7L14.7 16.7L13.9 15.7L12.6 13.9C12.5 13.7 12.2 13.6 11.9 13.6C11.6 13.6 11.4 13.7 11.2 13.9L10 15.7L9.20001 16.7L8.40001 17.7L7.60001 18.8C7.40001 19 7.40001 19.3 7.50001 19.6C7.70001 19.8 8.00001 20 8.30001 20H15.6C15.9 20 16.2 19.8 16.3 19.6C16.4 19.3 16.4 19.1 16.2 18.8L15.5 17.7Z" fill="#DADEE6"/>
</svg>
